<svg version="1.2" xmlns="http://www.w3.org/2000/svg" viewBox="0 0 1945 1083" width="120" height="67">
	<title>iSectraLogo (2)-svg</title>
	<style>
		.s0 { fill: #3a3633 } 
		.s1 { fill: #7dca00 } 
		.s2 { fill: #07588a } 
		.s3 { fill: #7a7977 } 
		.s4 { fill: #000000 } 
	</style>
	<g id="Layer">
		<g id="Layer">
			<g id="Layer">
				<path id="Layer" fill-rule="evenodd" class="s0" d="m805.4 628.4h-230.2q1.3 55.1 29.3 85.1 28 29.9 77 29.9 55.1 0 101.3-36.7v49.6q-43 31.6-113.7 31.6-69.1 0-108.5-44.9-39.5-45-39.5-126.5 0-77 43.1-125.5 43.2-48.5 107.2-48.5 63.9 0 99 41.9 35 41.8 35 116.3c0 0 0 27.7 0 27.7zm-53.5-44.8q-0.3-45.7-21.8-71.2-21.5-25.5-59.7-25.5-36.9 0-62.7 26.8-25.8 26.7-31.9 69.9c0 0 176.1 0 176.1 0z"/>
				<path id="Layer" class="s0" d="m1119.6 765q-37.6 22.9-89.2 22.9-69.7 0-112.5-45.9-42.8-45.9-42.8-119.1 0-81.5 46.1-131 46.2-49.4 123.3-49.4 42.9 0 75.7 16.1v54.1q-36.3-25.8-77.7-25.8-49.9 0-81.9 36.3-32 36.2-32 95.2 0 58 30.1 91.5 30 33.5 80.7 33.5 42.6 0 80.2-28.6z"/>
				<path id="Layer" class="s0" d="m1375.8 777q-18.4 10.3-48.7 10.3-85.6 0-85.6-96.7v-195.3h-56v-45.1h56v-80.6l52.2-17v97.6h82.1v45.1h-82.1v185.9q0 33.2 11.1 47.4 11.2 14.2 37 14.2 19.7 0 34-11z"/>
				<path id="Layer" class="s0" d="m1628.6 503.7q-13.7-10.6-39.5-10.6-33.4 0-55.8 31.9-22.5 31.9-22.5 87v168.2h-52.2v-330h52.2v68h1.3q11.1-34.8 34.1-54.3 22.9-19.5 51.2-19.5 20.4 0 31.2 4.5c0 0 0 54.8 0 54.8z"/>
				<path id="Layer" fill-rule="evenodd" class="s0" d="m1892.5 780.2v-51.6h-1.3q-34 59.3-100.2 59.3-48.7 0-76.3-26.1-27.5-26.1-27.5-69.3 0-92.4 107.6-107.6l97.7-13.8q0-84.2-67.2-84.2-58.9 0-106.3 40.6v-54.1q48.1-30.9 110.8-30.9 114.9 0 114.9 123.1v214.6zm0-166.9zm-78.6 10.9q-36.3 5.2-54.7 18.2-18.5 13.1-18.5 46.3 0 24.1 17 39.4 17 15.3 45.4 15.3 38.8 0 64.1-27.5 25.3-27.6 25.3-69.8v-32.8z"/>
			</g>
		</g>
		<path id="Layer" class="s0" d="m214.7 238.8c-66 0-119.3-53.3-119.3-119.2 0-66 53.3-119.3 119.3-119.3 65.9 0 119.2 53.3 119.2 119.3 0 65.9-53.3 119.2-119.2 119.2z"/>
		<path id="Layer" class="s1" d="m485.3 115.5c0 0-139.3 154.8-245.4 184.2-106 29.4-239.2 9.3-239.2 9.3 0 0 97.6 59.6 120 110.7 22.5 51.1 27.1 147.1 73.6 205.1 46.4 58.1 144.7 114.6 144.7 114.6 0 0-41-95.2-32.5-240 8.5-144.8 175.7-365.4 178.8-383.9z"/>
		<path id="Layer" class="s2" d="m579 148c0 0-144.8 209.8-137.8 366.1 7 156.4 51.1 199 24.8 336-26.3 137-184.3 180.4-302.7 233 0 0 200.5-105.3 232.2-243.8 31.8-138.6-48-243.9-28.6-383.2 19.4-139.4 171.1-274.9 212.1-308.1z"/>
		<path id="Layer" fill-rule="evenodd" class="s3" d="m569.6 1033v-139.1h82.8q19.4 0 33.3 2.5 13.8 2.5 22.6 7.1 8.8 4.7 12.8 11.1 4 6.5 4 14.2 0 7.4-3.1 12.7-3.1 5.3-8 8.9-4.9 3.5-11.3 5.6c-4.2 1.3-11.3 2.3-15.8 2.8l2.7 0.4c15.4 1.4 24.1 5.2 31.6 11.4q11.3 9.2 11.3 23.1 0 10.9-5.4 18.4-5.4 7.5-15 12.2-9.5 4.6-22.9 6.6-13.4 2-29.1 2.1zm20.9-76.4h55.1q17 0 28.5-1.7 11.5-1.8 18.5-5.3 7.1-3.5 10.1-8.5 3-5.1 3-11.6 0.1-6.8-3.5-11.4-3.5-4.7-11.2-7.6-7.7-2.8-20-4.1-12.3-1.3-30.2-1.3h-50.3zm0 65.1h53.3q17.3 0 30.1-1 12.7-0.9 21.1-3.9 8.3-3 12.4-8.5 4.2-5.6 4.2-14.6 0-8.7-4.6-14-4.7-5.4-13.3-8.2-8.6-2.9-20.6-4-12-1.1-26.8-1.1h-55.7c0 0 0 55.3-0.1 55.3z"/>
		<path id="Layer" class="s3" d="m926.2 1033v-139.1h21v127.9h118.8v11.2z"/>
		<path id="Layer" class="s3" d="m1086.3 1033v-139.1h21v139.1z"/>
		<path id="Layer" class="s3" d="m1288.3 893.9h22.9l69.9 123.6 69.5-123.6h22.9l-80.5 139h-24.2z"/>
		<path id="Layer" class="s3" d="m1485.5 1033v-139.1h132.3v11.2h-111.4v50.2h108.5v11.2h-108.5v55.2h114.5v11.2c0 0-135.4 0-135.4 0.1z"/>
		<path id="Layer" class="s3" d="m1142 1033v-139.1h132.3v11.2h-111.3v50.2h108.5v11.2h-108.5v55.2h114.4v11.2c0 0-135.4 0-135.4 0.1z"/>
		<path id="Layer" class="s3" d="m758.2 1033v-139.1h132.3v11.2h-111.3v50.2h108.5v11.2h-108.5v55.2h114.4v11.2c0 0-135.4 0-135.4 0.1z"/>
		<path id="Layer" class="s4" d="m1735.9 1033v-139.1h20.9v139.1z"/>
		<path id="Layer" class="s4" d="m1781.8 893.9h161.3v11.2h-70.2v127.9h-20.9v-127.9h-70.2z"/>
	</g>
</svg>